<svg width="314" height="314" viewBox="0 0 314 314" fill="none" xmlns="http://www.w3.org/2000/svg">
<g clip-path="url(#clip0_705_1638)">
<path d="M248.332 143.853L267.917 163.476" stroke="#C0EBF1" stroke-width="1.5" stroke-linecap="round" stroke-linejoin="round"/>
<path d="M84.9067 202.506C88.5123 206.119 94.3635 206.125 97.9762 202.519C101.589 198.913 101.594 193.062 97.9889 189.45C94.3834 185.837 88.5321 185.831 84.9195 189.437C81.3068 193.042 81.3013 198.894 84.9067 202.506Z" fill="#C0EBF1" stroke="#C0EBF1" stroke-width="1.5" stroke-linecap="round" stroke-linejoin="round"/>
<path d="M215.677 124.217C219.283 127.829 225.134 127.835 228.747 124.229C232.359 120.624 232.365 114.773 228.759 111.16C225.154 107.547 219.302 107.542 215.69 111.147C212.077 114.753 212.072 120.604 215.677 124.217Z" fill="#C0EBF1" stroke="#C0EBF1" stroke-width="1.5" stroke-linecap="round" stroke-linejoin="round"/>
<path d="M91.4478 195.978C91.4478 195.978 150.235 222.174 156.833 156.833C163.431 91.4924 222.218 117.688 222.218 117.688" stroke="#C0EBF1" stroke-width="1.5" stroke-linecap="round" stroke-linejoin="round"/>
<path d="M45.7493 150.19L65.3344 169.813" stroke="#C0EBF1" stroke-width="1.5" stroke-linecap="round" stroke-linejoin="round"/>
</g>
<defs>
<clipPath id="clip0_705_1638">
<rect width="221.796" height="221.796" fill="white" transform="translate(156.986) rotate(45.0557)"/>
</clipPath>
</defs>
</svg>
