<svg width="270" height="270" viewBox="0 0 270 270" fill="none" xmlns="http://www.w3.org/2000/svg">
<g clip-path="url(#clip0_705_1665)">
<path d="M201.566 145.319C194.039 149.591 186.262 153.094 178.326 155.827M114.15 161.46C106.563 160.248 99.042 158.37 91.6594 155.827" stroke="#C0EBF1" stroke-width="1.5" stroke-linecap="round" stroke-linejoin="round"/>
<path d="M233.425 120.931C241.191 128.697 241.191 141.288 233.425 149.054C225.659 156.821 213.067 156.821 205.301 149.054C197.535 141.288 197.535 128.697 205.301 120.931C213.067 113.165 225.659 113.165 233.425 120.931Z" stroke="#C0EBF1" stroke-width="1.5" stroke-linecap="round" stroke-linejoin="round"/>
<path d="M149.054 149.054C156.821 156.82 156.82 169.412 149.054 177.178C141.288 184.944 128.697 184.944 120.931 177.178C113.165 169.412 113.165 156.82 120.931 149.054C128.697 141.288 141.288 141.288 149.054 149.054Z" stroke="#C0EBF1" stroke-width="1.5" stroke-linecap="round" stroke-linejoin="round"/>
<path d="M64.684 120.931C72.45 128.697 72.4501 141.288 64.684 149.054C56.9179 156.821 44.3265 156.821 36.5605 149.054C28.7945 141.288 28.7944 128.697 36.5605 120.931C44.3266 113.165 56.918 113.165 64.684 120.931Z" stroke="#C0EBF1" stroke-width="1.5" stroke-linecap="round" stroke-linejoin="round"/>
</g>
<defs>
<clipPath id="clip0_705_1665">
<rect width="190.908" height="190.908" fill="white" transform="translate(134.993 269.985) rotate(-135)"/>
</clipPath>
</defs>
</svg>
